<svg xmlns="http://www.w3.org/2000/svg" xmlns:xlink="http://www.w3.org/1999/xlink" xmlns:lucid="lucid" width="6046" height="776.6"><g transform="translate(4168.465759949932 1284.2971428571427)" lucid:page-tab-id="HsWjhSJiizrBM"><path d="M-4167.47-1229.7a5 5 0 0 1 5-5h6034a5 5 0 0 1 5 5v716a5 5 0 0 1-5 5h-6034a5 5 0 0 1-5-5z" stroke="#000" stroke-width="2" fill="#fff"/><path d="M-4167.47-1279.3a5 5 0 0 1 5-5h484.3a5 5 0 0 1 5 5v27.6a5 5 0 0 1-5 5h-484.3a5 5 0 0 1-5-5z"/><use xlink:href="#a" transform="matrix(1,0,0,1,-4159.465759949932,-1273.8971428571426) translate(0 14.6)"/><use xlink:href="#b" transform="matrix(1,0,0,1,-4159.465759949932,-1273.8971428571426) translate(136.70000000000002 14.6)"/><use xlink:href="#c" transform="matrix(1,0,0,1,-4159.465759949932,-1273.8971428571426) translate(223.60000000000002 14.6)"/><use xlink:href="#d" transform="matrix(1,0,0,1,-4159.465759949932,-1273.8971428571426) translate(317.5 14.6)"/><use xlink:href="#e" transform="matrix(1,0,0,1,-4159.465759949932,-1273.8971428571426) translate(382.45 14.6)"/><path d="M-1200-1019a5 5 0 0 1 5-5h2720a5 5 0 0 1 5 5v381a5 5 0 0 1-5 5h-2720a5 5 0 0 1-5-5z" stroke="#242f3e" stroke-width="3" fill="#fff" fill-opacity="0"/><path d="M-1200-1024h56v56h-56v-56z" stroke="#fff" stroke-opacity="0" fill="#242f3e"/><path d="M-1181.78-998.13c-.04.48.05.87.17 1.34.1.4.28.7.48 1.07.04.1.08.22.08.34 0 .2-.12.36-.28.46l-.95.62c-.12.1-.25.13-.37.13-.16 0-.33-.06-.45-.2-.2-.22-.36-.43-.52-.7-.17-.25-.3-.53-.46-.86-1.1 1.37-2.62 2.1-4.4 2.06-1.14.06-2.12-.3-2.95-1.08-.78-.8-1.14-1.76-1.1-2.85-.05-1.23.4-2.28 1.35-3.08 1.07-.86 2.3-1.23 3.65-1.16.58 0 1.03.02 1.6.1.58.1 1.12.2 1.73.33v-1.1c.08-.88-.16-1.67-.7-2.37-.74-.56-1.56-.8-2.46-.7-.53 0-1.03.07-1.6.2-.58.13-1.03.3-1.6.5l-.5.2h-.24c-.2 0-.33-.16-.33-.45v-.75c0-.18.04-.33.12-.5.12-.16.24-.26.4-.33.66-.3 1.2-.5 1.9-.67.77-.2 1.47-.3 2.3-.28 1.47-.13 2.78.26 3.9 1.2.94 1.05 1.35 2.28 1.22 3.67zm-6.07 2.28c.57 0 1.06-.1 1.6-.28.57-.2 1.03-.5 1.43-.96.25-.27.42-.56.5-.93.12-.45.16-.84.16-1.3v-.67c-.53-.1-.94-.17-1.43-.2h-1.4c-.8-.08-1.55.12-2.2.58-.54.45-.8 1.04-.75 1.73-.04.62.13 1.16.54 1.6.44.38.97.52 1.55.45zm12 1.6c-.22 0-.42-.03-.6-.15-.15-.17-.23-.36-.32-.6l-3.5-11.5-.1-.62c0-.24.1-.37.36-.37h1.47c.2 0 .37.04.57.15.17.18.25.37.3.6l2.5 9.96 2.38-9.93c0-.24.08-.44.28-.6.17-.12.37-.16.58-.14h1.2c.24-.02.4.02.6.13.17.2.25.37.3.6l2.33 9.95 2.56-10c.04-.2.16-.4.33-.58.15-.1.36-.17.56-.14h1.4c.16 0 .33.12.37.3v.31s0 .2-.12.35l-3.6 11.53c-.05.22-.13.42-.3.6-.2.1-.37.14-.57.13h-1.27c-.25.04-.45-.02-.62-.15-.16-.16-.25-.36-.3-.6l-2.3-9.6-2.3 9.6h.02c-.05.24-.13.43-.3.6-.2.13-.4.2-.6.16zm19.2.38c-.82 0-1.5-.07-2.3-.25-.65-.13-1.14-.3-1.72-.6-.2-.1-.37-.23-.45-.4-.08-.16-.12-.3-.12-.45v-.75c0-.3.12-.46.32-.46h.3l.36.15c.58.24 1.03.4 1.6.5.62.15 1.15.2 1.8.2.8.06 1.5-.1 2.2-.48.48-.32.77-.83.73-1.42.04-.4-.13-.76-.38-1.04-.46-.4-.95-.65-1.52-.8l-2.18-.68c-.94-.25-1.72-.73-2.38-1.5-.5-.65-.74-1.35-.74-2.18 0-.6.12-1.08.4-1.6.3-.5.63-.9 1.08-1.22.5-.38.98-.6 1.6-.78.66-.18 1.2-.26 1.9-.25.32-.03.6-.03.97 0l1 .16.8.23.67.25c.16.1.28.22.45.38.08.15.12.3.12.5v.7c0 .3-.12.47-.37.47-.2-.03-.37-.1-.57-.18-.95-.42-1.8-.6-2.88-.58-.7-.04-1.3.08-1.97.4-.5.3-.74.8-.7 1.36 0 .4.13.76.45 1.05.5.4 1 .65 1.6.82l2.1.67c.94.24 1.68.7 2.3 1.43.5.64.7 1.3.7 2.1 0 .63-.13 1.17-.37 1.73-.3.55-.62.95-1.1 1.32-.5.4-1 .66-1.6.84-.75.23-1.4.33-2.15.34zM-1153.9-986.5c-5.6 3.8-11.36 5.56-18.15 5.54-8.54.05-15.82-2.74-22.16-8.45-.5-.42 0-1 .48-.68 7.07 4.05 14.03 5.9 22.2 5.9 6.1-.04 11.3-1.1 16.93-3.47.83-.35 1.52.54.7 1.13z" stroke="#fff" stroke-opacity="0" fill="#fff"/><path d="M-1151.84-988.8c-.64-.82-4.16-.38-5.75-.2-.46 0-.53-.36-.1-.66 2.8-1.98 7.42-1.4 8-.74.6.67-.14 5.28-2.78 7.5-.4.32-.78.13-.6-.3.54-1.52 1.86-4.83 1.24-5.6z" stroke="#fff" stroke-opacity="0" fill="#fff"/><use xlink:href="#f" transform="matrix(1,0,0,1,-1129,-1004) translate(0 14.4)"/><use xlink:href="#g" transform="matrix(1,0,0,1,-1129,-1004) translate(42.900000000000006 14.4)"/><path d="M-4105.47-986.7a5 5 0 0 1 5-5h2730a5 5 0 0 1 5 5v381a5 5 0 0 1-5 5h-2730a5 5 0 0 1-5-5z" stroke="#242f3e" stroke-width="3" fill="#fff" fill-opacity="0"/><path d="M-4105.47-991.7h56v56h-56v-56z" stroke="#fff" stroke-opacity="0" fill="#242f3e"/><path d="M-4087.24-965.83c-.04.48.04.88.16 1.34.13.4.3.7.5 1.08.04.1.08.2.08.33 0 .2-.13.37-.3.47l-.93.6c-.13.1-.25.14-.37.14-.17 0-.33-.06-.46-.2-.2-.2-.37-.42-.53-.7-.15-.24-.28-.52-.44-.86-1.1 1.38-2.63 2.1-4.4 2.06-1.14.06-2.13-.3-2.95-1.08-.77-.8-1.14-1.75-1.1-2.85-.04-1.22.4-2.28 1.35-3.08 1.07-.85 2.3-1.23 3.66-1.16.58 0 1.04.03 1.6.1.6.1 1.12.2 1.74.33v-1.1c.08-.88-.17-1.66-.7-2.37-.74-.56-1.56-.78-2.47-.7-.53 0-1.02.07-1.6.2-.57.14-1.02.3-1.6.52l-.5.2h-.24c-.2 0-.33-.17-.33-.47v-.75c0-.18.04-.33.13-.5.12-.16.24-.25.4-.32.66-.3 1.2-.5 1.9-.68.78-.2 1.47-.3 2.3-.28 1.47-.13 2.8.27 3.9 1.2.94 1.05 1.35 2.3 1.23 3.68zm-6.08 2.28c.58 0 1.07-.08 1.6-.28.58-.2 1.03-.5 1.44-.96.25-.27.4-.56.5-.93.12-.45.16-.84.16-1.3v-.67c-.54-.1-.95-.16-1.44-.2h-1.4c-.82-.08-1.56.12-2.2.58-.55.45-.8 1.04-.75 1.73-.05.62.1 1.17.52 1.62.45.36 1 .5 1.56.43zm12 1.6c-.2.02-.42-.02-.58-.15-.17-.17-.25-.35-.33-.6l-3.5-11.5-.12-.62c0-.24.13-.37.37-.37h1.48c.2 0 .37.04.58.15.16.2.24.37.28.6l2.5 9.96 2.4-9.93c0-.24.07-.43.28-.6.16-.1.37-.16.57-.14h1.2c.25-.02.4.03.62.14.16.18.25.36.3.6l2.33 9.94 2.54-9.98c.04-.23.16-.42.32-.6.17-.1.37-.16.58-.13h1.4c.16-.03.32.1.36.28v.31s0 .2-.12.36l-3.6 11.52c-.05.23-.14.42-.3.6-.2.1-.37.14-.58.13h-1.27c-.26.04-.46-.02-.63-.14-.16-.17-.24-.37-.28-.6l-2.3-9.6-2.3 9.6c-.05.23-.13.43-.3.6-.2.12-.4.18-.6.15zm19.2.38c-.8 0-1.5-.07-2.3-.25-.65-.13-1.14-.3-1.72-.6-.2-.1-.37-.23-.45-.4-.07-.15-.1-.3-.1-.45v-.74c0-.32.1-.48.32-.48h.3l.36.16c.57.24 1.02.4 1.6.5.6.15 1.15.2 1.8.2.78.06 1.48-.1 2.18-.5.5-.3.78-.8.74-1.4.04-.4-.12-.76-.37-1.04-.45-.4-.95-.64-1.52-.78l-2.17-.7c-.94-.25-1.72-.72-2.38-1.5-.5-.64-.74-1.35-.74-2.18 0-.58.14-1.08.42-1.6.3-.5.62-.88 1.07-1.22.48-.38.98-.6 1.6-.77.65-.2 1.18-.28 1.88-.27.33-.02.62-.02 1 0l.97.16.82.23.66.25c.16.1.3.22.45.38.08.15.13.3.13.5v.7c0 .32-.12.47-.36.47-.2-.03-.37-.08-.58-.18-.94-.42-1.8-.6-2.87-.58-.7-.04-1.33.1-1.98.4-.5.3-.74.8-.7 1.36 0 .4.12.76.45 1.05.5.4 1 .65 1.6.82l2.1.67c.94.24 1.68.7 2.3 1.44.5.64.7 1.3.7 2.1 0 .63-.13 1.17-.38 1.73-.3.55-.62.96-1.1 1.32-.5.4-1 .66-1.62.85-.74.23-1.4.33-2.13.35zM-4059.36-954.2c-5.6 3.8-11.37 5.56-18.15 5.54-8.56.05-15.84-2.73-22.18-8.45-.5-.42 0-1 .5-.68 7.07 4.06 14.02 5.9 22.2 5.9 6.1-.04 11.28-1.1 16.93-3.47.8-.35 1.5.55.7 1.14z" stroke="#fff" stroke-opacity="0" fill="#fff"/><path d="M-4057.3-956.5c-.65-.8-4.17-.38-5.75-.2-.48 0-.54-.36-.1-.66 2.8-1.97 7.4-1.4 8-.74.58.67-.16 5.28-2.8 7.5-.4.33-.78.14-.6-.3.54-1.52 1.87-4.83 1.25-5.6z" stroke="#fff" stroke-opacity="0" fill="#fff"/><use xlink:href="#h" transform="matrix(1,0,0,1,-4034.4657599499324,-971.6971428571428) translate(0 14.4)"/><use xlink:href="#i" transform="matrix(1,0,0,1,-4034.4657599499324,-971.6971428571428) translate(56.55 14.4)"/><path d="M390-813h120v120H390v-120z" stroke="#000" stroke-opacity="0" fill="#dd344c"/><path d="M468.5-758.4c-1.72 0-3-1.34-3-3 0-1.63 1.28-3 3-3 1.62 0 3 1.37 3 3 0 1.66-1.38 3-3 3m-13.53 15c-1.7 0-3-1.34-3-3 0-1.63 1.3-3 3-3 1.63 0 3 1.37 3 3 0 1.66-1.37 3-3 3m-12.06-18c-1.62 0-3-1.34-3-3 0-1.63 1.38-2.9 3-2.9 1.72 0 3 1.26 3 2.9 0 1.66-1.28 3-3 3m-14.96 15c-1.63 0-3-1.34-3-3 0-1.63 1.37-3 3-3 1.62 0 3 1.37 3 3 0 1.66-1.38 3-3 3m40.55-20.9c-3.35 0-6.08 2.62-6.08 5.9 0 1.66.68 3.1 1.7 4.14l-5.47 6.15c-1.02-.76-2.3-1.28-3.68-1.28-.6 0-1.2.14-1.8.3l-5.56-8.55c.87-.98 1.38-2.33 1.38-3.75 0-3.3-2.74-5.93-6.07-5.93-3.24 0-5.98 2.62-5.98 5.9 0 1.37.43 2.56 1.2 3.54l-6.68 6.6c-1.02-.67-2.22-1.13-3.5-1.13-3.34 0-6 2.72-6 6 0 3.3 2.66 6 6 6 3.33 0 6-2.7 6-6 0-.88-.2-1.78-.6-2.53l7.1-7.06c.76.4 1.6.62 2.47.62.86 0 1.63-.15 2.32-.46l5.4 8.33c-1.04 1.04-1.64 2.47-1.64 4.12 0 3.3 2.66 6 6 6 3.24 0 5.98-2.7 5.98-6 0-.83-.17-1.58-.43-2.25l6.16-7.05c.6.22 1.1.3 1.8.3 3.24 0 5.98-2.7 5.98-6s-2.74-5.93-6-5.93m9.6 29.9h-13.7c-.34 0-.6.1-.85.24L439.9-720v-15.88c0-.83-.67-1.5-1.44-1.5h-16.94c-1.54 0-2.74-.3-3.68-.9-3.08-1.96-6.84-5.78-6.84-12.6 0-9.15 6.4-12.15 10.18-13.13.68-.16 1.2-.84 1.1-1.6l-.08-2.46c0-7.28 4.97-15.15 11.38-17.85 2.9-1.2 5.56-1.74 8.05-1.74 6.84 0 11.72 3.98 13.86 6.08 2.3 2.32 4.1 5.32 5.38 8.92.17.53.68.9 1.2.98.5.07 1.1-.15 1.45-.6 1.88-2.55 5.13-3.67 8.13-2.7 3.33 1.13 5.3 4.35 5.3 8.93v.07c-.08.83.43 1.58 1.3 1.73 2.8.45 12.3 2.92 12.3 13.42 0 12.3-12.06 13.34-12.5 13.4m1.9-29.53c-.35-5.4-3-9.46-7.36-10.88-3.43-1.13-7.1-.3-9.76 1.94-1.36-3.07-3.08-5.63-5.2-7.8-6.95-6.9-16.36-8.77-25.17-5.02-7.62 3.22-13.35 12.07-13.35 20.7l.1 1.42C415.1-765.2 408-761.4 408-750.9c0 8.64 5.13 13.22 8.2 15.1 1.47.96 3.18 1.34 5.32 1.34h15.4v17.4c0 .6.34 1.05.85 1.35.18.07.43.14.7.14.25 0 .6-.08.84-.3l25.6-18.6h13.35c.17 0 15.3-1.27 15.3-16.35 0-11.56-9.23-15.16-13.6-16.13" stroke="#000" stroke-opacity="0" fill="#fff"/><use xlink:href="#f" transform="matrix(1,0,0,1,360,-684) translate(24.07499999999999 14.4)"/><use xlink:href="#j" transform="matrix(1,0,0,1,360,-684) translate(66.975 14.4)"/><use xlink:href="#k" transform="matrix(1,0,0,1,360,-684) translate(115.925 14.4)"/><path d="M810-813h120v120H810v-120z" stroke="#000" stroke-opacity="0" fill="#01a88d"/><path d="M871.5-769.55H882v-2.94h-10.5v2.95zm0-9h13.54v-3H871.5v3zm7.5 16.56h21v-3h-21v3zm6.04-7.55h16.46v-2.94h-16.46v2.95zm23.94 39.06h-25.46v3.04h26.97c.83 0 1.5-.68 1.5-1.52v-27.04h-3.02v25.53zm-2.1-48.04l-11.34-11.34v11.34h11.34zm5.12 1.52v10.5h-3.02v-9h-14.96c-.84 0-1.5-.66-1.5-1.5v-14.96h-27.06v19.5h-2.94v-21c0-.85.68-1.52 1.52-1.52h29.98c.34 0 .76.17 1 .42l16.56 16.46c.25.34.42.68.42 1.1zm-73.5 40.57h3.02v-10.5h-3.02v10.5zm5.96 4.45h3.03v-21h-3.04v21zm6.05-2.94h3.04v-16.55h-3.03v16.56zm5.98 4.45h3.02v-24h-3.02v24zm6.04-5.95h2.94v-13.53h-2.94v13.53zm5.97 5.96h3v-24h-3v24zm6.04-7.46h2.94v-10.5h-2.94v10.5zm3.2 9.66l2.5 1.68c-4.86 7.4-13.18 11.84-22.25 11.84-4.8 0-9.6-1.26-13.54-3.44l-13.6 7.05c-.34.1-.6.17-.93.17-.5 0-1-.17-1.43-.6-.5-.58-.67-1.5-.25-2.26l7.06-13.52c-2.85-4.62-4.28-9.16-4.28-13.6 0-14.62 12.35-27.06 26.97-27.06 5.62 0 11.5 1.85 15.86 4.8l-1.68 2.5c-3.86-2.68-9.15-4.27-14.2-4.27-13 0-24.02 11-24.02 24 0 4.13 1.43 8.33 4.3 12.7.32.5.32 1 .07 1.5l-5.88 11.43 11.34-5.96c.5-.17 1-.17 1.5.08 3.53 2.2 8.15 3.45 12.7 3.45 8.05 0 15.44-3.95 19.73-10.5z" stroke="#000" stroke-opacity="0" fill="#fff"/><use xlink:href="#l" transform="matrix(1,0,0,1,780,-684) translate(5.6499999999999915 14.4)"/><use xlink:href="#m" transform="matrix(1,0,0,1,780,-684) translate(114.45 14.4)"/><path d="M1230-813h120v120h-120v-120z" stroke="#000" stroke-opacity="0" fill="#01a88d"/><path d="M1311.12-773.9c0 .82-.73 1.48-1.54 1.48-.8 0-1.54-.66-1.54-1.48 0-.83.73-1.5 1.54-1.5.8 0 1.54.67 1.54 1.5zm-9.07 14.92c0-.82.65-1.48 1.54-1.48.8 0 1.45.66 1.45 1.48s-.65 1.48-1.46 1.48c-.9 0-1.55-.66-1.55-1.48zm0 28.52c0-.82.65-1.56 1.54-1.56.8 0 1.45.74 1.45 1.56 0 .83-.65 1.5-1.46 1.5-.9 0-1.55-.67-1.55-1.5zm14.98-19.53c0 .83-.64 1.5-1.45 1.5-.8 0-1.54-.67-1.54-1.5 0-.82.73-1.48 1.54-1.48.8 0 1.45.66 1.45 1.5zm10.53 4.95l-7.53-4.37v-.57c0-2.47-2.02-4.45-4.45-4.45-2.52 0-4.54 1.98-4.54 4.46s2.02 4.54 4.54 4.54c1.2 0 2.26-.5 3.07-1.24l7.2 4.13-6.47 3.2c-.48.34-.8.84-.8 1.4v12.63l-18.07 11.13-8.9-5.13v-9.64h7.78c.56 1.73 2.26 2.97 4.2 2.97 2.44 0 4.46-1.98 4.46-4.46 0-2.47-2.02-4.53-4.45-4.53-1.96 0-3.66 1.25-4.22 2.98h-7.78v-20.94c0-.5-.32-1-.73-1.32l-7.53-4.45-1.54 2.55 6.8 4.04v4.45l-9.07 6.94v-6.18c0-.5-.16-.9-.57-1.24l-6.88-5.52v-7.42l8.34-5.6c.4-.26.65-.75.65-1.25v-8.98h-3v8.16l-7.45 5.04-7.53-5.03v-11.78l7.44-4.37v12.53h3v-14.26l6-3.55 8.98 5.2.08 18.55c0 .58.25 1.07.73 1.32l9.8 5.6c0 .17-.08.4-.08.58 0 2.47 2.03 4.53 4.54 4.53 2.42 0 4.44-2.06 4.44-4.53s-2.02-4.45-4.45-4.45c-1.23 0-2.28.4-3.1 1.23l-8.9-5.1v-17.73l8.9-5.1 16.53 10.95v3.7h-3.16c-.64-1.72-2.34-2.96-4.3-2.96-2.5 0-4.52 2.07-4.52 4.54s2.02 4.53 4.53 4.53c2.03 0 3.73-1.32 4.3-3.05h3.15v4.45c0 .58.33 1.08.8 1.32l9.73 5.53v16.07zm-47.95 30.83l-4.77-2.96 8.6-6.1-1.7-2.4-9.65 6.85-10.53-6.5v-11.8l6.8-4.04-1.54-2.56-6.8 4.04-7.44-3.7v-8.65l8.18-4.05-1.38-2.72-6.8 3.4v-5.7l8.9-5.12 7.62 5.03v7.4l-8.34 5.54 1.62 2.55 8.1-5.37 6.07 4.8v7.82l-6.88 5.27 1.86 2.4 17.1-13.1v24.55l-9 5.12zm50.23-49.05l-9.8-5.52v-11.12c0-.5-.24-1-.65-1.24l-17.98-12.03c-.5-.32-1.05-.32-1.62-.07l-9.72 5.68-9.72-5.67c-.5-.25-1.05-.25-1.54 0l-17.98 10.55c-.5.25-.73.74-.73 1.23v12.7l-9.8 5.53c-.42.25-.74.75-.74 1.32V-742.5c0 .57.32 1.06.8 1.3l8.2 4.13v12.53c0 .58.23 1.07.72 1.32l19.52 11.95c.24.17.5.25.73.25.32 0 .57-.08.8-.16l9.73-5.6 9.72 5.6c.5.24 1.13.24 1.54-.1l19.52-11.94c.5-.25.73-.74.73-1.32v-12.53l8.18-4.12c.5-.25.8-.75.8-1.32v-19.45c0-.57-.3-1.07-.72-1.32z" stroke="#000" stroke-opacity="0" fill="#fff"/><use xlink:href="#n" transform="matrix(1,0,0,1,1200,-684) translate(42.05 14.4)"/><use xlink:href="#o" transform="matrix(1,0,0,1,1200,-684) translate(82 14.4)"/><path d="M-870-813h120v120h-120v-120z" stroke="#000" stroke-opacity="0" fill="#ed7100"/><path d="M-827.92-714.02h-18.63l20.57-43 9.4 19.14-11.34 23.86zm3.32-47.13c-.24-.5-.8-.84-1.38-.84-.56 0-1.13.35-1.38.85l-22.92 47.97c-.24.5-.24 1 .08 1.5.25.43.73.68 1.3.68h21.95c.57 0 1.05-.34 1.3-.84l12.06-25.37c.18-.43.18-.93 0-1.27l-11-22.68zm52.16 47.13H-791l-29.63-62.16c-.25-.5-.8-.84-1.38-.84h-12.08v-14.96h23.74l29.56 62.16c.24.5.73.84 1.3.84h7.04v14.96zm1.46-17.98h-7.53l-29.58-62.16c-.24-.5-.73-.84-1.3-.84h-26.24c-.8 0-1.46.67-1.46 1.5v18c0 .4.1.74.4 1.08.25.25.66.42 1.06.42h12.64l29.73 62.16c.24.5.8.84 1.37.84h20.9c.9 0 1.54-.67 1.54-1.5v-18c0-.83-.65-1.5-1.54-1.5z" stroke="#000" stroke-opacity="0" fill="#fff"/><use xlink:href="#p" transform="matrix(1,0,0,1,-900,-684) translate(19.625 14.4)"/><use xlink:href="#q" transform="matrix(1,0,0,1,-900,-684) translate(107.47500000000001 14.4)"/><path d="M-30-813H90v120H-30v-120z" stroke="#000" stroke-opacity="0" fill="#dd344c"/><path d="M19.5-751.5h4.54v-3H19.5v3zm9 30h3v-4.54h-3v4.54zm0-7.48h3v-4.53h-3v4.52zm0-15.03h3v-4.46h-3v4.45zm0 7.46h3V-741h-3v4.46zM12-751.5h4.46v-3h-4.46v3zm-7.56 0H9v-3H4.46v3zm-7.47 0H1.5v-3H-3v3zM31.5-714v-4.46h-3v4.46H-9v-37.47h2.94v-3h-2.94V-792H28.5v37.47h-1.52v3h42V-714H31.5zm0-75.86L66.9-754.5H31.5v-35.38zM72-753c0-.42-.17-.76-.42-1.1l-40.5-40.48c-.32-.25-.66-.42-1.08-.42h-40.5c-.83 0-1.5.67-1.5 1.5v81c0 .83.67 1.5 1.5 1.5h81c.83 0 1.5-.67 1.5-1.5V-753z" stroke="#000" stroke-opacity="0" fill="#fff"/><use xlink:href="#r" transform="matrix(1,0,0,1,-60,-684) translate(11.625 14.4)"/><use xlink:href="#m" transform="matrix(1,0,0,1,-60,-684) translate(108.47500000000001 14.4)"/><path d="M-450-813h120v120h-120v-120z" stroke="#000" stroke-opacity="0" fill="#ed7100"/><path d="M-409.5-733.5H-372V-771h-37.47v37.47zM-369-771h5.96v2.94H-369v6.05h5.96v3.04H-369v4.45h5.96v3H-369v5.98h5.96v3.02H-369v5.96h5.96v3.03H-369v.24c0 1.5-1.26 2.77-2.77 2.77h-.25v5.98h-2.94v-5.97H-381v5.98h-3.04v-5.97h-4.45v5.98h-3v-5.97h-5.98v5.98h-3.02v-5.97h-5.96v5.98h-3.03v-5.97h-.24c-1.5 0-2.77-1.25-2.77-2.76v-.25h-4.46v-3.04h4.45v-5.96h-4.46v-3.02h4.45v-5.97h-4.46v-3h4.45v-4.46h-4.46V-762h4.45v-6.04h-4.46v-2.94h4.45v-.25c0-1.5 1.25-2.77 2.76-2.77h.25v-5.96h3.04v5.96h5.96v-5.96h3.02v5.96h5.97v-5.96h3v5.96h4.46v-5.96h3.03v5.96h6.04v-5.96h2.94v5.96h.25c1.5 0 2.77 1.26 2.77 2.77v.25zm-19.5 56.8c0 .07-.07.16-.16.16h-40.15c-.1 0-.18-.1-.18-.17v-40.14c0-.1.1-.17.17-.17h8.8v-3.04h-8.8c-1.77 0-3.2 1.43-3.2 3.2v40.15c0 1.77 1.43 3.2 3.2 3.2h40.14c1.77 0 3.2-1.43 3.2-3.2v-7.3h-3.03v7.3zm40.5-77.63v40.14c0 1.77-1.43 3.2-3.2 3.2h-8.8v-3.03h8.8c.1 0 .18-.07.18-.16v-40.15c0-.1-.1-.18-.17-.18h-40.14c-.1 0-.17.1-.17.17v8.8h-3.04v-8.8c0-1.77 1.43-3.2 3.2-3.2h40.15c1.77 0 3.2 1.43 3.2 3.2z" stroke="#000" stroke-opacity="0" fill="#fff"/><use xlink:href="#s" transform="matrix(1,0,0,1,-480,-684) translate(20.049999999999997 14.4)"/><use xlink:href="#o" transform="matrix(1,0,0,1,-480,-684) translate(104 14.4)"/><path d="M-4075.47-906.7a5 5 0 0 1 5-5h150a5 5 0 0 1 5 5v110a5 5 0 0 1-5 5h-150a5 5 0 0 1-5-5z" stroke="#ff80df" stroke-width="2" fill="#fff0fb"/><use xlink:href="#t" transform="matrix(1,0,0,1,-4055.4657599499324,-911.6971428571428) translate(24.099999999999994 52.8)"/><use xlink:href="#u" transform="matrix(1,0,0,1,-4055.4657599499324,-911.6971428571428) translate(26.525 74.4)"/><path d="M-3615.47-911.7h120v120h-120v-120z" stroke="#000" stroke-opacity="0" fill="#c925d1"/><path d="M-3537.32-829.44c-5.04 4.04-15.55 6.22-25.56 6.22-10.08 0-20.6-2.18-25.56-6.22v8.15c0 4.13 10.44 8.66 25.56 8.66 15.05 0 25.56-4.53 25.56-8.65v-8.14zm0-15.45h2.95c0 1.77-.86 3.45-2.66 5.05 2.16 1.85 2.66 3.7 2.66 5.04v13.5c0 7.57-14.7 11.6-28.5 11.6-13.84 0-28.52-4.03-28.6-11.5v-13.6c0-1.36.58-3.2 2.67-5.05-2.1-1.93-2.67-3.7-2.67-5.04v-13.6c0-1.26.58-3.1 2.67-5.04-2.1-1.85-2.67-3.7-2.67-4.96v-13.6c0-7.56 14.76-11.6 28.6-11.6 7.76 0 15.32 1.26 20.58 3.45l-1.14 2.68c-4.9-2-12.03-3.2-19.44-3.2-15.12 0-25.56 4.55-25.56 8.66 0 4.03 10.44 8.56 25.56 8.56h1.15l.14 2.94c-.42.1-.85.1-1.28.1-10.08 0-20.6-2.2-25.56-6.23v8.15c0 1.6 1.58 2.94 2.95 3.78 4.04 2.6 11.24 4.37 19.3 4.7l-.14 3.03c-8.13-.42-15.26-2.1-19.87-4.7-1.16.83-2.24 2-2.24 3.27 0 4.12 10.44 8.65 25.56 8.65 1.44 0 2.95-.08 4.32-.17l.2 2.94c-1.43.17-3 .17-4.52.17-10.08 0-20.6-2.1-25.56-6.14v8.15c0 1.6 1.58 2.95 2.95 3.8 4.62 2.93 13.26 4.77 22.62 4.77h.65v2.95h-.65c-9.5 0-18.15-1.77-23.4-4.7-1.08.83-2.16 2-2.16 3.27 0 4.02 10.44 8.55 25.56 8.55 15.05 0 25.56-4.45 25.56-8.56 0-1.27-1.08-2.45-2.23-3.3-.72.43-1.52.85-2.38 1.2l-1.15-2.78c1.08-.43 2-.93 2.8-1.43 1.3-.85 2.96-2.28 2.96-3.8zm12.8-21.75h-8.34c-.5 0-1-.25-1.3-.67-.28-.42-.28-.92-.14-1.43l5.1-12.77h-19.35l-9 17.9h9.57c.5 0 .94.25 1.23.58.28.42.36.93.2 1.35l-8.56 26.63 30.6-31.58zm4.62-.5l-37.5 38.72c-.3.34-.66.5-1.1.5-.2 0-.5-.08-.7-.25-.66-.33-.87-1-.73-1.68l9.94-30.82h-9.93c-.58 0-1-.26-1.3-.68-.28-.42-.28-1-.07-1.42l10.5-20.84c.23-.5.73-.84 1.3-.84h22.55c.5 0 .93.25 1.22.68.3.4.36.92.14 1.34l-5.1 12.77h9.72c.58 0 1.15.42 1.37.92.28.6.13 1.18-.3 1.6zm-66.38 46.45l1.5-2.6c1.8 1.1 4.33 2 7.2 2.68l-.78 2.94c-3.1-.84-5.83-1.85-7.92-3.02zm7.92-20.83l.8-2.86c-2.9-.66-5.4-1.6-7.2-2.68l-1.52 2.6c2.1 1.18 4.82 2.2 7.92 2.95zm-7.92-26.8l1.5-2.52c1.8 1 4.33 1.93 7.2 2.7l-.78 2.85c-3.1-.76-5.83-1.77-7.92-3.03z" stroke="#000" stroke-opacity="0" fill="#fff"/><use xlink:href="#v" transform="matrix(1,0,0,1,-3645.4657599499324,-782.6971428571428) translate(22.57499999999999 14.4)"/><use xlink:href="#w" transform="matrix(1,0,0,1,-3645.4657599499324,-782.6971428571428) translate(45.52499999999999 14.4)"/><use xlink:href="#x" transform="matrix(1,0,0,1,-3645.4657599499324,-782.6971428571428) translate(59.55 36)"/><path d="M-3195.47-911.7h120v120h-120v-120z" stroke="#000" stroke-opacity="0" fill="#01a88d"/><path d="M-3162.35-836.72c3.45 5.4 9.5 9 16.38 9 10.76 0 19.5-8.7 19.5-19.44 0-10.8-8.74-19.5-19.5-19.5-8.06 0-15.03 4.95-17.97 11.94h3.27c2.78-5.33 8.32-9 14.7-9 9.08 0 16.47 7.42 16.47 16.56 0 9.07-7.4 16.5-16.47 16.5-5.12 0-9.66-2.4-12.68-6.06h-3.7zm22.35-7.5v-2.94h7.56c0-7.5-6.05-13.54-13.53-13.54-7.47 0-13.52 6.05-13.52 13.54h7.57v2.95h-7.22c1.42 6.04 6.8 10.5 13.18 10.5 3.2 0 6.14-1.15 8.5-3.02h-6.98v-2.95h9.74c.83-1.37 1.5-2.88 1.92-4.54h-7.22zm-23.94 4.55h3.27c-1.17-2.3-1.76-4.83-1.76-7.5 0-1.58.17-3.1.6-4.53h-3.12c-.34 1.44-.5 2.96-.5 4.54 0 2.6.5 5.18 1.5 7.5zm-1.93 2.95h-4.12v-2.95h2.87c-.5-1.44-.93-2.96-1.1-4.54h-4.1l1.92 1.94-2.1 2.15-4.55-4.54c-.58-.58-.58-1.5 0-2.1l4.54-4.52 2.1 2.15-1.94 1.94h3.86c0-1.6.17-3.1.5-4.54h-2v-3.02h2.85c3.1-8.7 11.42-14.98 21.16-14.98 6.64 0 12.6 2.88 16.72 7.5h22.26v3.02h-19.98c2.18 3.45 3.53 7.55 3.53 12.02h16.46v2.95h-16.7c-1.43 11-10.84 19.5-22.27 19.5-8.65 0-16.12-4.9-19.9-12.02zm25.87-16.5v3.04h-2.94v-1.52h-1.5v4.54h1.5v2.95h-6.05v-2.96h1.52v-4.54h-1.5v1.52h-2.95v-3.03c0-.8.67-1.52 1.43-1.52h9.07c.76 0 1.43.72 1.43 1.5zm18.06 1.52h14.95v-3.02h-14.94v3.02zm0 14.98h14.95v-2.95h-14.94v2.95zm12-34.5h5.4l-5.4-5.4v5.4zm10 .44c.34.3.5.65.5 1.08v52.5c0 .86-.66 1.5-1.5 1.5h-46.54c-.84 0-1.5-.64-1.5-1.5v-5.98h3v4.46h43.53v-49.46h-9c-.83 0-1.5-.65-1.5-1.52v-9h-33.02v7.5h-3.02v-9c0-.8.68-1.52 1.52-1.52h36.04c.33 0 .75.22 1 .43l10.5 10.52zm6.47-4.68v55.3c0 .8-.67 1.44-1.5 1.44h-3.03v-2.95h1.5v-53.14l-11.08-9.87h-33.85v1.5h-3.02v-3c0-.88.67-1.53 1.5-1.53h35.96c.43 0 .77.15 1.02.36l12 10.8c.35.3.5.65.5 1.08z" stroke="#000" stroke-opacity="0" fill="#fff"/><use xlink:href="#y" transform="matrix(1,0,0,1,-3225.4657599499324,-782.6971428571428) translate(20.07499999999999 14.4)"/><use xlink:href="#z" transform="matrix(1,0,0,1,-3225.4657599499324,-782.6971428571428) translate(88.02499999999999 14.4)"/><path d="M-2775.47-931.7h120v120h-120v-120z" stroke="#000" stroke-opacity="0" fill="#01a88d"/><path d="M-2677.5-841.2l-20.07-19.58c-2.02 2.6-4.37 5.04-6.98 6.98l19.58 20.07c1 1 2.18 1.1 2.94 1 1.26-.16 2.52-.83 3.6-1.92 1.02-1.1 1.77-2.36 1.94-3.62.1-.84 0-1.93-1-2.94zm-46.8-9.16c16.65 0 30.17-13.52 30.17-30.16 0-16.63-13.52-30.15-30.16-30.15-16.62 0-30.14 13.52-30.14 30.15s13.52 30.16 30.15 30.16zm50.75 12.5c-.25 1.86-1.26 3.8-2.77 5.3-1.6 1.6-3.45 2.53-5.3 2.78-.33.08-.67.08-.92.08-1.76 0-3.36-.67-4.53-1.84l-20.08-20.6c-4.96 3.12-10.84 4.8-17.14 4.8-18.3 0-33.17-14.87-33.17-33.18 0-18.3 14.87-33.18 33.18-33.18 18.33 0 33.2 14.87 33.2 33.18 0 6.3-1.77 12.18-4.8 17.14l20.6 20c1.4 1.5 2.1 3.43 1.75 5.53zm-29.57-42.66c0-11.84-9.32-21.16-21.17-21.16-11.83 0-21.15 9.32-21.15 21.16 0 11.93 9.32 21.17 21.16 21.17 11.86 0 21.18-9.24 21.18-21.17zm3.03 0c0 13.6-10.58 24.2-24.2 24.2-13.5 0-24.18-10.6-24.18-24.2 0-13.52 10.67-24.2 24.2-24.2 13.6 0 24.2 10.68 24.2 24.2zm-33.5 4.3v4.52h4.53v3.03h-7.56v-7.56h3.02zm-3.03-9.08v-7.57h7.56v3.03h-4.54v4.54h-3.03zm16.63-4.54v-3.02h7.56v7.56h-3.03v-4.54h-4.53zm4.53 13.6h3.03v7.57h-7.56v-3.03h4.53v-4.53z" stroke="#000" stroke-opacity="0" fill="#fff"/><use xlink:href="#A" transform="matrix(1,0,0,1,-2805.4657599499324,-802.6971428571428) translate(32.275 14.4)"/><use xlink:href="#B" transform="matrix(1,0,0,1,-2805.4657599499324,-802.6971428571428) translate(85.82499999999999 14.4)"/><use xlink:href="#C" transform="matrix(1,0,0,1,-2805.4657599499324,-802.6971428571428) translate(107.82499999999999 14.4)"/><path d="M-2355.47-911.7h120v120h-120v-120z" stroke="#000" stroke-opacity="0" fill="#01a88d"/><path d="M-2329.95-830.7h23.93v-3.02h-23.93v3.02zm25.46-10.5h13.5v-3.02h-13.5v3.02zm-25.45 0h22.47v-3.02h-22.47v3.02zm0-31.5h19.48v-3.02h-19.48v3.02zm68.95 42.1c-.17.15-.42.24-.6.32-.76.42-1.88.93-2.3 2.02-.1.17-.1.42-.1.6v5.95h-2.98v-13.53h4.45v-2.94h-11.97v2.94h4.45v13.52h-3v-5.97c0-.17 0-.42-.08-.6-.43-1.08-1.45-1.6-2.3-2-.18-.1-.43-.18-.6-.34-4.45-3.04-6.67-8.33-5.8-13.8 1-6.04 6.14-10.83 12.3-11.5.25-.08 1.78-.08 2.13 0 6.06.67 11.2 5.46 12.2 11.5.87 5.47-1.35 10.76-5.8 13.8zm8.72-14.2c-1.1-7.4-7.43-13.28-14.87-14.12h-2.73c-7.44.84-13.67 6.72-14.87 14.1-1.1 6.56 1.62 12.95 7 16.73l1.03.5c.26.18.5.26.7.35v7.05c0 .84.67 1.52 1.52 1.52h11.97c.85 0 1.53-.68 1.53-1.52v-6.97c.17-.17.43-.25.7-.42.33-.16.67-.32 1-.5 5.4-3.77 8.13-10.16 7.02-16.7zm-14 32.08h-4.46l-.94-1.5h6.33l-.94 1.5zm3.75-4.45h-11.97c-.6 0-1.1.25-1.36.75s-.17 1.1.08 1.5l3 4.55c.33.42.76.67 1.27.67h5.97c.52 0 .95-.25 1.3-.67l2.98-4.53c.25-.43.34-1 .08-1.52-.25-.5-.77-.75-1.36-.75zm-67.42-34.53h38.96v-3.02h-38.95v3.02zm13.5-10.5h25.46v-3.02h-25.45v3.02zm-13.5 0h10.5v-3.02h-10.5v3.02zm28.45-26.37l12.9 12.85h-12.9v-12.85zm14.96 68.37h-47.93v-70.47h29.98v16.46c0 .83.7 1.5 1.55 1.5h16.4v17.98h3.08v-19.5h-.08c0-.4-.1-.75-.43-1l-17.94-18.06c-.26-.25-.7-.42-1.03-.42h-32.98c-.85 0-1.54.68-1.54 1.52v73.5c0 .83.7 1.5 1.54 1.5h50.92c.85 0 1.53-.67 1.53-1.5v-9h-3.07v7.48z" stroke="#000" stroke-opacity="0" fill="#fff"/><use xlink:href="#D" transform="matrix(1,0,0,1,-2385.4657599499324,-782.6971428571428) translate(28.074999999999996 14.4)"/><use xlink:href="#E" transform="matrix(1,0,0,1,-2385.4657599499324,-782.6971428571428) translate(82.025 14.4)"/><use xlink:href="#z" transform="matrix(1,0,0,1,-2385.4657599499324,-782.6971428571428) translate(54.05 36)"/><path d="M-1935.47-911.7h120v120h-120v-120z" stroke="#000" stroke-opacity="0" fill="#01a88d"/><path d="M-1854.35-872.6c0 .83-.73 1.5-1.54 1.5-.8 0-1.52-.67-1.52-1.5 0-.82.73-1.48 1.54-1.48.8 0 1.53.66 1.53 1.48zm-9.07 14.92c0-.82.65-1.48 1.54-1.48.8 0 1.46.66 1.46 1.48 0 .83-.65 1.5-1.46 1.5-.9 0-1.54-.67-1.54-1.5zm0 28.53c0-.83.65-1.57 1.54-1.57.8 0 1.46.74 1.46 1.57 0 .82-.65 1.48-1.46 1.48-.9 0-1.54-.66-1.54-1.48zm15-19.54c0 .83-.66 1.5-1.47 1.5-.8 0-1.53-.67-1.53-1.5 0-.82.73-1.47 1.54-1.47.82 0 1.47.65 1.47 1.48zm10.52 4.96l-7.54-4.37v-.6c0-2.46-2.02-4.44-4.45-4.44-2.5 0-4.53 1.98-4.53 4.45 0 2.48 2.03 4.54 4.54 4.54 1.22 0 2.28-.5 3.1-1.23l7.2 4.13-6.48 3.2c-.5.34-.8.84-.8 1.42v12.6l-18.08 11.14-8.9-5.12v-9.65h7.77c.58 1.73 2.28 2.97 4.22 2.97 2.43 0 4.46-1.98 4.46-4.45 0-2.48-2.03-4.54-4.46-4.54-1.94 0-3.64 1.25-4.2 2.98h-7.8v-20.94c0-.5-.3-1-.72-1.32l-7.53-4.45-1.54 2.56 6.8 4.03v4.46l-9.07 6.92v-6.18c0-.5-.16-.9-.56-1.24l-6.9-5.52v-7.42l8.36-5.6c.4-.25.64-.75.64-1.24v-9h-3v8.17l-7.45 5.04-7.53-5.03v-11.78l7.45-4.37v12.53h3v-14.26l6-3.54 9 5.2.07 18.54c0 .58.24 1.07.72 1.32l9.8 5.6c0 .17-.08.42-.08.58 0 2.48 2.03 4.54 4.54 4.54 2.43 0 4.46-2.06 4.46-4.54 0-2.47-2.03-4.45-4.46-4.45-1.2 0-2.27.4-3.08 1.24l-8.9-5.1v-17.73l8.9-5.1 16.53 10.96v3.7h-3.16c-.64-1.73-2.34-2.96-4.3-2.96-2.5 0-4.52 2.06-4.52 4.53s2.02 4.53 4.54 4.53c2.02 0 3.72-1.3 4.3-3.04h3.15v4.44c0 .57.32 1.07.8 1.32l9.73 5.52v16.08zm-47.95 30.83l-4.78-2.98 8.58-6.1-1.7-2.4-9.64 6.85-10.52-6.5v-11.8l6.8-4.04-1.53-2.56-6.8 4.04-7.46-3.7v-8.65l8.17-4.04-1.38-2.7-6.8 3.37v-5.7l8.9-5.1 7.62 5.03v7.42l-8.35 5.52 1.62 2.56 8.1-5.36 6.07 4.78v7.83l-6.9 5.28 1.88 2.4 17.1-13.12V-818l-9 5.1zm50.2-49.06l-9.8-5.53v-11.12c0-.5-.23-1-.63-1.23l-18-12.04c-.47-.32-1.04-.32-1.6-.07l-9.73 5.7-9.73-5.7c-.48-.25-1.05-.25-1.53 0l-18 10.55c-.47.25-.72.74-.72 1.24v12.7l-9.8 5.52c-.4.24-.73.74-.73 1.32V-841.18c0 .57.32 1.06.8 1.3l8.18 4.13v12.53c0 .58.25 1.07.73 1.32l19.54 11.96c.24.16.48.24.72.24.33 0 .57-.08.8-.16l9.73-5.6 9.7 5.6c.5.25 1.15.25 1.55-.08l19.52-11.96c.5-.25.73-.74.73-1.32v-12.53l8.18-4.12c.5-.25.8-.74.8-1.32v-19.44c0-.58-.3-1.08-.7-1.32h-.02z" stroke="#000" stroke-opacity="0" fill="#fff"/><use xlink:href="#F" transform="matrix(1,0,0,1,-1965.4657599499324,-782.6971428571428) translate(21.94999999999999 14.4)"/><use xlink:href="#G" transform="matrix(1,0,0,1,-1965.4657599499324,-782.6971428571428) translate(101.89999999999999 14.4)"/><path d="M-1515.47-911.7h120v120h-120v-120z" stroke="#000" stroke-opacity="0" fill="#c925d1"/><path d="M-1492.34-890.67l13.94 13.94-2.1 2.1-13.94-13.94v11.34h-3.03v-14.95c0-.85.68-1.52 1.52-1.52h14.95v3.03h-11.34zm78.87-1.5v14.94h-3.02v-11.34l-13.93 13.94-2.1-2.1 13.94-13.94h-11.33v-3.03h14.95c.84 0 1.5.68 1.5 1.52zm-3.02 66h3.03v14.96c0 .83-.67 1.5-1.5 1.5h-14.96v-3.02h11.34l-13.93-13.94 2.1-2.1 13.94 13.94v-11.34zm-.75-26.7c0-4.96-5.7-9.9-15.37-13.2l1-2.85c11 3.78 17.4 9.66 17.4 16.05 0 6.38-6.4 12.26-17.4 15.96l-1-2.78c9.66-3.28 15.37-8.24 15.37-13.2zm-76.35 0c0 4.78 5.37 9.57 14.36 12.76l-1 2.85c-10.42-3.78-16.4-9.4-16.4-15.62 0-6.22 5.98-11.85 16.4-15.63l1 2.77c-9 3.28-14.36 8.07-14.36 12.86zm15.2 26.2l-13.94 13.95h11.34v3.02h-14.95c-.84 0-1.52-.67-1.52-1.5v-14.96h3.03v11.34l13.94-13.94 2.1 2.1zm22.93-38.13c-10.75 0-16.46-2.77-16.46-3.87 0-1.17 5.7-3.86 16.46-3.86 10.76 0 16.47 2.7 16.47 3.87 0 1.1-5.7 3.86-16.47 3.86zm.1 11.67c-10.34 0-16.56-2.85-16.56-4.36v-7.3c3.7 2.1 10.25 3.02 16.46 3.02 6.22 0 12.77-.92 16.47-3.02v7.3c0 1.52-6.22 4.38-16.38 4.38zm0 11.43c-10.34 0-16.56-2.77-16.56-4.28v-7.4c3.6 2.1 10.08 3.2 16.55 3.2 6.38 0 12.77-1.1 16.38-3.2v7.4c0 1.5-6.22 4.28-16.38 4.28zm-.1 10.25c-10.66 0-16.46-2.86-16.46-4.3v-6.2c3.6 2.18 10.08 3.27 16.55 3.27 6.38 0 12.77-1.1 16.38-3.27v6.2c0 1.44-5.8 4.3-16.47 4.3zm0-44.1c-9.4 0-19.48 2.18-19.48 6.88v32.93c0 4.8 9.82 7.3 19.48 7.3s19.5-2.5 19.5-7.3v-32.92c0-4.7-10.1-6.9-19.5-6.9z" stroke="#000" stroke-opacity="0" fill="#fff"/><use xlink:href="#F" transform="matrix(1,0,0,1,-1545.4657599499324,-782.6971428571428) translate(28.549999999999997 14.4)"/><use xlink:href="#H" transform="matrix(1,0,0,1,-1545.4657599499324,-782.6971428571428) translate(108.5 14.4)"/><path d="M-1136.8-852.6l.9.22.88.36.8.5.7.6.62.7.5.8.35.88.22.9.07.9v108.7l.06.67.14.6.24.6.33.53.42.48.48.4.54.34.58.25.62.14.66.05h239.2v1.96h-239.27l-.9-.08-.9-.22-.88-.35-.8-.5-.7-.6-.62-.72-.5-.8-.35-.85-.22-.92-.07-.9v-108.7l-.06-.66-.15-.6-.25-.6-.33-.53-.4-.48-.5-.4-.53-.34-.6-.24-.6-.15-.67-.05h-256.7v-1.95h256.78z" stroke="#000" stroke-width=".05"/><path d="M-1394.44-850.72h-1.03v-1.95h1.03z"/><path stroke="#000" stroke-width=".05"/><path d="M-873.24-733l-14.26 4.63v-9.26z"/><path d="M-870.08-733l-18.4 5.98v-11.96zm-16.45 3.3l10.14-3.3-10.13-3.3z" stroke="#000" stroke-width=".05"/><path d="M511-753h280.5" stroke="#000" stroke-width="2" fill="none"/><path d="M511.03-752.02H510V-754h1.03z" stroke="#000" stroke-width=".05"/><path d="M806.76-753l-14.26 4.63v-9.26z" stroke="#000" stroke-width="2"/><path d="M931-753h280.5" stroke="#000" stroke-width="2" fill="none"/><path d="M931.03-752.02H930V-754h1.03z" stroke="#000" stroke-width=".05"/><path d="M1226.76-753l-14.26 4.63v-9.26z" stroke="#000" stroke-width="2"/><path d="M1351-753h428.53a5 5 0 0 0 5-5v-319.7a5 5 0 0 0-5-5h-2510a5 5 0 0 0-5 5v219.1a5 5 0 0 1-5 5H-905a5 5 0 0 0-5 5v70.6a5 5 0 0 0 5 5h16.5" stroke="#000" stroke-width="2" fill="none"/><path d="M1351.03-752.02H1350V-754h1.03z" stroke="#000" stroke-width=".05"/><path d="M-873.24-773l-14.26 4.63v-9.26z" stroke="#000" stroke-width="2"/><path d="M-749-753h280.5" stroke="#000" stroke-width="2" fill="none"/><path d="M-748.97-752.02H-750V-754h1.03z" stroke="#000" stroke-width=".05"/><path d="M-453.24-753l-14.26 4.63v-9.26z" stroke="#000" stroke-width="2"/><path d="M-329-753h280.5" stroke="#000" stroke-width="2" fill="none"/><path d="M-328.97-752.02H-330V-754h1.03z" stroke="#000" stroke-width=".05"/><path d="M-33.24-753l-14.26 4.63v-9.26z" stroke="#000" stroke-width="2"/><path d="M91-753h280.5" stroke="#000" stroke-width="2" fill="none"/><path d="M91.03-752.02H90V-754h1.03z" stroke="#000" stroke-width=".05"/><path d="M386.76-753l-14.26 4.63v-9.26z" stroke="#000" stroke-width="2"/><path d="M-3913.47-851.7h279.5" stroke="#000" stroke-width="2" fill="none"/><path d="M-3913.44-850.72h-1.03v-1.95h1.03z" stroke="#000" stroke-width=".05"/><path d="M-3618.7-851.7l-14.27 4.64v-9.27z" stroke="#000" stroke-width="2"/><path d="M-3494.47-851.7h280.5" stroke="#000" stroke-width="2" fill="none"/><path d="M-3494.44-850.72h-1.03v-1.95h1.03z" stroke="#000" stroke-width=".05"/><path d="M-3198.7-851.7l-14.27 4.64v-9.27z" stroke="#000" stroke-width="2"/><path d="M-3074.47-871.7h280.5" stroke="#000" stroke-width="2" fill="none"/><path d="M-3074.44-870.72h-1.03v-1.95h1.03z" stroke="#000" stroke-width=".05"/><path d="M-2778.7-871.7l-14.27 4.64v-9.27z" stroke="#000" stroke-width="2"/><path d="M-2929.53-832.6l.9.22.88.36.8.5.7.6.62.7.5.8.35.88.22.9.07.9v160l.06.67.15.62.25.58.33.54.4.48.5.4.53.34.6.23.6.14.67.06h409.93l.66-.06.62-.14.58-.24.54-.34.48-.4.4-.5.34-.53.24-.58.15-.62.06-.66v-160l.07-.9.22-.9.36-.88.5-.8.6-.72.72-.6.8-.5.87-.36.9-.22.9-.07h126.53v1.95h-126.46l-.66.05-.6.15-.6.24-.53.33-.48.4-.42.5-.33.53-.24.58-.14.6-.05.68v160l-.06.9-.22.9-.36.88-.5.8-.6.7-.7.62-.8.5-.88.35-.9.2-.9.08h-410.08l-.9-.07-.9-.2-.88-.37-.8-.5-.7-.6-.62-.7-.5-.8-.35-.88-.22-.9-.07-.9v-160l-.05-.68-.14-.6-.24-.6-.33-.53-.42-.48-.48-.4-.54-.34-.58-.24-.62-.15-.66-.05h-143.97v-1.95h144.04z" stroke="#000" stroke-width=".05"/><path d="M-3074.44-830.72h-1.03v-1.95h1.03z"/><path stroke="#000" stroke-width=".05"/><path d="M-2358.7-831.7l-14.27 4.64v-9.27z"/><path d="M-2355.55-831.7l-18.4 5.98v-11.95zm-16.44 3.3l10.14-3.3-10.13-3.3z" stroke="#000" stroke-width=".05"/><path d="M-2654.47-871.7h280.5" stroke="#000" stroke-width="2" fill="none"/><path d="M-2654.44-870.72h-1.03v-1.95h1.03z" stroke="#000" stroke-width=".05"/><path d="M-2358.7-871.7l-14.27 4.64v-9.27z" stroke="#000" stroke-width="2"/><path d="M-2234.47-851.7h280.5" stroke="#000" stroke-width="2" fill="none"/><path d="M-2234.44-850.72h-1.03v-1.95h1.03z" stroke="#000" stroke-width=".05"/><path d="M-1938.7-851.7l-14.27 4.64v-9.27z" stroke="#000" stroke-width="2"/><path d="M-1814.47-851.7h280.5" stroke="#000" stroke-width="2" fill="none"/><path d="M-1814.44-850.72h-1.03v-1.95h1.03z" stroke="#000" stroke-width=".05"/><path d="M-1518.7-851.7l-14.27 4.64v-9.27z" stroke="#000" stroke-width="2"/><defs><path fill="#fff" d="M137 0h-34L2-248h35l83 218 83-218h36" id="I"/><path fill="#fff" d="M100-194c62-1 85 37 85 99 1 63-27 99-86 99S16-35 15-95c0-66 28-99 85-99zM99-20c44 1 53-31 53-75 0-43-8-75-51-75s-53 32-53 75 10 74 51 75" id="J"/><path fill="#fff" d="M24-231v-30h32v30H24zM24 0v-190h32V0H24" id="K"/><path fill="#fff" d="M96-169c-40 0-48 33-48 73s9 75 48 75c24 0 41-14 43-38l32 2c-6 37-31 61-74 61-59 0-76-41-82-99-10-93 101-131 147-64 4 7 5 14 7 22l-32 3c-4-21-16-35-41-35" id="L"/><path fill="#fff" d="M100-194c63 0 86 42 84 106H49c0 40 14 67 53 68 26 1 43-12 49-29l28 8c-11 28-37 45-77 45C44 4 14-33 15-96c1-61 26-98 85-98zm52 81c6-60-76-77-97-28-3 7-6 17-6 28h103" id="M"/><path fill="#fff" d="M16-82v-28h88v28H16" id="N"/><path fill="#fff" d="M212-179c-10-28-35-45-73-45-59 0-87 40-87 99 0 60 29 101 89 101 43 0 62-24 78-52l27 14C228-24 195 4 139 4 59 4 22-46 18-125c-6-104 99-153 187-111 19 9 31 26 39 46" id="O"/><path fill="#fff" d="M117-194c89-4 53 116 60 194h-32v-121c0-31-8-49-39-48C34-167 62-67 57 0H25l-1-190h30c1 10-1 24 2 32 11-22 29-35 61-36" id="P"/><path fill="#fff" d="M59-47c-2 24 18 29 38 22v24C64 9 27 4 27-40v-127H5v-23h24l9-43h21v43h35v23H59v120" id="Q"/><path fill="#fff" d="M114-163C36-179 61-72 57 0H25l-1-190h30c1 12-1 29 2 39 6-27 23-49 58-41v29" id="R"/><path fill="#fff" d="M24 0v-261h32V0H24" id="S"/><path fill="#fff" d="M85-194c31 0 48 13 60 33l-1-100h32l1 261h-30c-2-10 0-23-3-31C134-8 116 4 85 4 32 4 16-35 15-94c0-66 23-100 70-100zm9 24c-40 0-46 34-46 75 0 40 6 74 45 74 42 0 51-32 51-76 0-42-9-74-50-73" id="T"/><g id="a"><use transform="matrix(0.05,0,0,0.05,0,0)" xlink:href="#I"/><use transform="matrix(0.05,0,0,0.05,11,0)" xlink:href="#J"/><use transform="matrix(0.05,0,0,0.05,21,0)" xlink:href="#K"/><use transform="matrix(0.05,0,0,0.05,24.95,0)" xlink:href="#L"/><use transform="matrix(0.05,0,0,0.05,33.95,0)" xlink:href="#M"/><use transform="matrix(0.05,0,0,0.05,43.95,0)" xlink:href="#N"/><use transform="matrix(0.05,0,0,0.05,49.900000000000006,0)" xlink:href="#O"/><use transform="matrix(0.05,0,0,0.05,62.85,0)" xlink:href="#J"/><use transform="matrix(0.05,0,0,0.05,72.85000000000001,0)" xlink:href="#P"/><use transform="matrix(0.05,0,0,0.05,82.85000000000001,0)" xlink:href="#Q"/><use transform="matrix(0.05,0,0,0.05,87.85000000000001,0)" xlink:href="#R"/><use transform="matrix(0.05,0,0,0.05,93.80000000000001,0)" xlink:href="#J"/><use transform="matrix(0.05,0,0,0.05,103.80000000000001,0)" xlink:href="#S"/><use transform="matrix(0.05,0,0,0.05,107.75,0)" xlink:href="#S"/><use transform="matrix(0.05,0,0,0.05,111.7,0)" xlink:href="#M"/><use transform="matrix(0.05,0,0,0.05,121.7,0)" xlink:href="#T"/></g><path fill="#fff" d="M30-248c118-7 216 8 213 122C240-48 200 0 122 0H30v-248zM63-27c89 8 146-16 146-99s-60-101-146-95v194" id="U"/><path fill="#fff" d="M84 4C-5 8 30-112 23-190h32v120c0 31 7 50 39 49 72-2 45-101 50-169h31l1 190h-30c-1-10 1-25-2-33-11 22-28 36-60 37" id="V"/><path fill="#fff" d="M210-169c-67 3-38 105-44 169h-31v-121c0-29-5-50-35-48C34-165 62-65 56 0H25l-1-190h30c1 10-1 24 2 32 10-44 99-50 107 0 11-21 27-35 58-36 85-2 47 119 55 194h-31v-121c0-29-5-49-35-48" id="W"/><g id="b"><use transform="matrix(0.05,0,0,0.05,0,0)" xlink:href="#U"/><use transform="matrix(0.05,0,0,0.05,12.950000000000001,0)" xlink:href="#J"/><use transform="matrix(0.05,0,0,0.05,22.950000000000003,0)" xlink:href="#L"/><use transform="matrix(0.05,0,0,0.05,31.950000000000003,0)" xlink:href="#V"/><use transform="matrix(0.05,0,0,0.05,41.95,0)" xlink:href="#W"/><use transform="matrix(0.05,0,0,0.05,56.900000000000006,0)" xlink:href="#M"/><use transform="matrix(0.05,0,0,0.05,66.9,0)" xlink:href="#P"/><use transform="matrix(0.05,0,0,0.05,76.9,0)" xlink:href="#Q"/></g><path fill="#fff" d="M30-248c87 1 191-15 191 75 0 78-77 80-158 76V0H30v-248zm33 125c57 0 124 11 124-50 0-59-68-47-124-48v98" id="X"/><path fill="#fff" d="M135-143c-3-34-86-38-87 0 15 53 115 12 119 90S17 21 10-45l28-5c4 36 97 45 98 0-10-56-113-15-118-90-4-57 82-63 122-42 12 7 21 19 24 35" id="Y"/><path fill="#fff" d="M177-190C167-65 218 103 67 71c-23-6-38-20-44-43l32-5c15 47 100 32 89-28v-30C133-14 115 1 83 1 29 1 15-40 15-95c0-56 16-97 71-98 29-1 48 16 59 35 1-10 0-23 2-32h30zM94-22c36 0 50-32 50-73 0-42-14-75-50-75-39 0-46 34-46 75s6 73 46 73" id="Z"/><g id="c"><use transform="matrix(0.05,0,0,0.05,0,0)" xlink:href="#X"/><use transform="matrix(0.05,0,0,0.05,12,0)" xlink:href="#R"/><use transform="matrix(0.05,0,0,0.05,17.95,0)" xlink:href="#J"/><use transform="matrix(0.05,0,0,0.05,27.950000000000003,0)" xlink:href="#L"/><use transform="matrix(0.05,0,0,0.05,36.95,0)" xlink:href="#M"/><use transform="matrix(0.05,0,0,0.05,46.95,0)" xlink:href="#Y"/><use transform="matrix(0.05,0,0,0.05,55.95,0)" xlink:href="#Y"/><use transform="matrix(0.05,0,0,0.05,64.95,0)" xlink:href="#K"/><use transform="matrix(0.05,0,0,0.05,68.9,0)" xlink:href="#P"/><use transform="matrix(0.05,0,0,0.05,78.9,0)" xlink:href="#Z"/></g><path fill="#fff" d="M185-189c-5-48-123-54-124 2 14 75 158 14 163 119 3 78-121 87-175 55-17-10-28-26-33-46l33-7c5 56 141 63 141-1 0-78-155-14-162-118-5-82 145-84 179-34 5 7 8 16 11 25" id="aa"/><path fill="#fff" d="M179-190L93 31C79 59 56 82 12 73V49c39 6 53-20 64-50L1-190h34L92-34l54-156h33" id="ab"/><g id="d"><use transform="matrix(0.05,0,0,0.05,0,0)" xlink:href="#aa"/><use transform="matrix(0.05,0,0,0.05,12,0)" xlink:href="#ab"/><use transform="matrix(0.05,0,0,0.05,21,0)" xlink:href="#Y"/><use transform="matrix(0.05,0,0,0.05,30,0)" xlink:href="#Q"/><use transform="matrix(0.05,0,0,0.05,35,0)" xlink:href="#M"/><use transform="matrix(0.05,0,0,0.05,45,0)" xlink:href="#W"/></g><path fill="#fff" d="M205 0l-28-72H64L36 0H1l101-248h38L239 0h-34zm-38-99l-47-123c-12 45-31 82-46 123h93" id="ac"/><path fill="#fff" d="M106-169C34-169 62-67 57 0H25v-261h32l-1 103c12-21 28-36 61-36 89 0 53 116 60 194h-32v-121c2-32-8-49-39-48" id="ad"/><g id="e"><use transform="matrix(0.05,0,0,0.05,0,0)" xlink:href="#ac"/><use transform="matrix(0.05,0,0,0.05,12,0)" xlink:href="#R"/><use transform="matrix(0.05,0,0,0.05,17.95,0)" xlink:href="#L"/><use transform="matrix(0.05,0,0,0.05,26.950000000000003,0)" xlink:href="#ad"/><use transform="matrix(0.05,0,0,0.05,36.95,0)" xlink:href="#K"/><use transform="matrix(0.05,0,0,0.05,40.900000000000006,0)" xlink:href="#Q"/><use transform="matrix(0.05,0,0,0.05,45.900000000000006,0)" xlink:href="#M"/><use transform="matrix(0.05,0,0,0.05,55.900000000000006,0)" xlink:href="#L"/><use transform="matrix(0.05,0,0,0.05,64.9,0)" xlink:href="#Q"/><use transform="matrix(0.05,0,0,0.05,69.9,0)" xlink:href="#V"/><use transform="matrix(0.05,0,0,0.05,79.9,0)" xlink:href="#R"/><use transform="matrix(0.05,0,0,0.05,85.85000000000001,0)" xlink:href="#M"/></g><path d="M232-93c-1 65-40 97-104 97C67 4 28-28 28-90v-158h33c8 89-33 224 67 224 102 0 64-133 71-224h33v155" id="ae"/><path d="M135-143c-3-34-86-38-87 0 15 53 115 12 119 90S17 21 10-45l28-5c4 36 97 45 98 0-10-56-113-15-118-90-4-57 82-63 122-42 12 7 21 19 24 35" id="af"/><path d="M100-194c63 0 86 42 84 106H49c0 40 14 67 53 68 26 1 43-12 49-29l28 8c-11 28-37 45-77 45C44 4 14-33 15-96c1-61 26-98 85-98zm52 81c6-60-76-77-97-28-3 7-6 17-6 28h103" id="ag"/><path d="M114-163C36-179 61-72 57 0H25l-1-190h30c1 12-1 29 2 39 6-27 23-49 58-41v29" id="ah"/><g id="f"><use transform="matrix(0.05,0,0,0.05,0,0)" xlink:href="#ae"/><use transform="matrix(0.05,0,0,0.05,12.950000000000001,0)" xlink:href="#af"/><use transform="matrix(0.05,0,0,0.05,21.950000000000003,0)" xlink:href="#ag"/><use transform="matrix(0.05,0,0,0.05,31.950000000000003,0)" xlink:href="#ah"/></g><path d="M33 0v-248h34V0H33" id="ai"/><path d="M117-194c89-4 53 116 60 194h-32v-121c0-31-8-49-39-48C34-167 62-67 57 0H25l-1-190h30c1 10-1 24 2 32 11-22 29-35 61-36" id="aj"/><path d="M59-47c-2 24 18 29 38 22v24C64 9 27 4 27-40v-127H5v-23h24l9-43h21v43h35v23H59v120" id="ak"/><path d="M141-36C126-15 110 5 73 4 37 3 15-17 15-53c-1-64 63-63 125-63 3-35-9-54-41-54-24 1-41 7-42 31l-33-3c5-37 33-52 76-52 45 0 72 20 72 64v82c-1 20 7 32 28 27v20c-31 9-61-2-59-35zM48-53c0 20 12 33 32 33 41-3 63-29 60-74-43 2-92-5-92 41" id="al"/><path d="M96-169c-40 0-48 33-48 73s9 75 48 75c24 0 41-14 43-38l32 2c-6 37-31 61-74 61-59 0-76-41-82-99-10-93 101-131 147-64 4 7 5 14 7 22l-32 3c-4-21-16-35-41-35" id="am"/><path d="M24-231v-30h32v30H24zM24 0v-190h32V0H24" id="an"/><path d="M100-194c62-1 85 37 85 99 1 63-27 99-86 99S16-35 15-95c0-66 28-99 85-99zM99-20c44 1 53-31 53-75 0-43-8-75-51-75s-53 32-53 75 10 74 51 75" id="ao"/><g id="g"><use transform="matrix(0.05,0,0,0.05,0,0)" xlink:href="#ai"/><use transform="matrix(0.05,0,0,0.05,5,0)" xlink:href="#aj"/><use transform="matrix(0.05,0,0,0.05,15,0)" xlink:href="#ak"/><use transform="matrix(0.05,0,0,0.05,20,0)" xlink:href="#ag"/><use transform="matrix(0.05,0,0,0.05,30,0)" xlink:href="#ah"/><use transform="matrix(0.05,0,0,0.05,35.95,0)" xlink:href="#al"/><use transform="matrix(0.05,0,0,0.05,45.95,0)" xlink:href="#am"/><use transform="matrix(0.05,0,0,0.05,54.95,0)" xlink:href="#ak"/><use transform="matrix(0.05,0,0,0.05,59.95,0)" xlink:href="#an"/><use transform="matrix(0.05,0,0,0.05,63.900000000000006,0)" xlink:href="#ao"/><use transform="matrix(0.05,0,0,0.05,73.9,0)" xlink:href="#aj"/></g><path d="M140-251c81 0 123 46 123 126C263-46 219 4 140 4 59 4 17-45 17-125s42-126 123-126zm0 227c63 0 89-41 89-101s-29-99-89-99c-61 0-89 39-89 99S79-25 140-24" id="ap"/><path d="M101-234c-31-9-42 10-38 44h38v23H63V0H32v-167H5v-23h27c-7-52 17-82 69-68v24" id="aq"/><path d="M24 0v-261h32V0H24" id="ar"/><g id="h"><use transform="matrix(0.05,0,0,0.05,0,0)" xlink:href="#ap"/><use transform="matrix(0.05,0,0,0.05,14,0)" xlink:href="#aq"/><use transform="matrix(0.05,0,0,0.05,18.65,0)" xlink:href="#aq"/><use transform="matrix(0.05,0,0,0.05,23.65,0)" xlink:href="#ar"/><use transform="matrix(0.05,0,0,0.05,27.599999999999994,0)" xlink:href="#an"/><use transform="matrix(0.05,0,0,0.05,31.549999999999997,0)" xlink:href="#aj"/><use transform="matrix(0.05,0,0,0.05,41.55,0)" xlink:href="#ag"/></g><path d="M30-248c87 1 191-15 191 75 0 78-77 80-158 76V0H30v-248zm33 125c57 0 124 11 124-50 0-59-68-47-124-48v98" id="as"/><g id="i"><use transform="matrix(0.05,0,0,0.05,0,0)" xlink:href="#as"/><use transform="matrix(0.05,0,0,0.05,12,0)" xlink:href="#ah"/><use transform="matrix(0.05,0,0,0.05,17.95,0)" xlink:href="#ao"/><use transform="matrix(0.05,0,0,0.05,27.950000000000003,0)" xlink:href="#am"/><use transform="matrix(0.05,0,0,0.05,36.95,0)" xlink:href="#ag"/><use transform="matrix(0.05,0,0,0.05,46.95,0)" xlink:href="#af"/><use transform="matrix(0.05,0,0,0.05,55.95,0)" xlink:href="#af"/></g><path d="M137 0h-34L2-248h35l83 218 83-218h36" id="at"/><g id="j"><use transform="matrix(0.05,0,0,0.05,0,0)" xlink:href="#at"/><use transform="matrix(0.05,0,0,0.05,11,0)" xlink:href="#ao"/><use transform="matrix(0.05,0,0,0.05,21,0)" xlink:href="#an"/><use transform="matrix(0.05,0,0,0.05,24.95,0)" xlink:href="#am"/><use transform="matrix(0.05,0,0,0.05,33.95,0)" xlink:href="#ag"/></g><path d="M115-194c55 1 70 41 70 98S169 2 115 4C84 4 66-9 55-30l1 105H24l-1-265h31l2 30c10-21 28-34 59-34zm-8 174c40 0 45-34 45-75s-6-73-45-74c-42 0-51 32-51 76 0 43 10 73 51 73" id="au"/><path d="M84 4C-5 8 30-112 23-190h32v120c0 31 7 50 39 49 72-2 45-101 50-169h31l1 190h-30c-1-10 1-25-2-33-11 22-28 36-60 37" id="av"/><g id="k"><use transform="matrix(0.05,0,0,0.05,0,0)" xlink:href="#ai"/><use transform="matrix(0.05,0,0,0.05,5,0)" xlink:href="#aj"/><use transform="matrix(0.05,0,0,0.05,15,0)" xlink:href="#au"/><use transform="matrix(0.05,0,0,0.05,25,0)" xlink:href="#av"/><use transform="matrix(0.05,0,0,0.05,35,0)" xlink:href="#ak"/></g><path d="M16-82v-28h88v28H16" id="aw"/><path d="M127-220V0H93v-220H8v-28h204v28h-85" id="ax"/><path d="M141 0L90-78 38 0H4l68-98-65-92h35l48 74 47-74h35l-64 92 68 98h-35" id="ay"/><g id="l"><use transform="matrix(0.05,0,0,0.05,0,0)" xlink:href="#at"/><use transform="matrix(0.05,0,0,0.05,11,0)" xlink:href="#ao"/><use transform="matrix(0.05,0,0,0.05,21,0)" xlink:href="#an"/><use transform="matrix(0.05,0,0,0.05,24.95,0)" xlink:href="#am"/><use transform="matrix(0.05,0,0,0.05,33.95,0)" xlink:href="#ag"/><use transform="matrix(0.05,0,0,0.05,43.95,0)" xlink:href="#aw"/><use transform="matrix(0.05,0,0,0.05,49.900000000000006,0)" xlink:href="#ak"/><use transform="matrix(0.05,0,0,0.05,54.900000000000006,0)" xlink:href="#ao"/><use transform="matrix(0.05,0,0,0.05,64.9,0)" xlink:href="#aw"/><use transform="matrix(0.05,0,0,0.05,70.85000000000001,0)" xlink:href="#ax"/><use transform="matrix(0.05,0,0,0.05,79.80000000000001,0)" xlink:href="#ag"/><use transform="matrix(0.05,0,0,0.05,89.80000000000001,0)" xlink:href="#ay"/><use transform="matrix(0.05,0,0,0.05,98.80000000000001,0)" xlink:href="#ak"/></g><path d="M185-189c-5-48-123-54-124 2 14 75 158 14 163 119 3 78-121 87-175 55-17-10-28-26-33-46l33-7c5 56 141 63 141-1 0-78-155-14-162-118-5-82 145-84 179-34 5 7 8 16 11 25" id="az"/><path d="M108 0H70L1-190h34L89-25l56-165h34" id="aA"/><g id="m"><use transform="matrix(0.05,0,0,0.05,0,0)" xlink:href="#az"/><use transform="matrix(0.05,0,0,0.05,12,0)" xlink:href="#ag"/><use transform="matrix(0.05,0,0,0.05,22,0)" xlink:href="#ah"/><use transform="matrix(0.05,0,0,0.05,27.950000000000003,0)" xlink:href="#aA"/><use transform="matrix(0.05,0,0,0.05,36.95,0)" xlink:href="#an"/><use transform="matrix(0.05,0,0,0.05,40.900000000000006,0)" xlink:href="#am"/><use transform="matrix(0.05,0,0,0.05,49.900000000000006,0)" xlink:href="#ag"/></g><path d="M30 0v-248h33v221h125V0H30" id="aB"/><path d="M240 0l2-218c-23 76-54 145-80 218h-23L58-218 59 0H30v-248h44l77 211c21-75 51-140 76-211h43V0h-30" id="aC"/><g id="n"><use transform="matrix(0.05,0,0,0.05,0,0)" xlink:href="#aB"/><use transform="matrix(0.05,0,0,0.05,10,0)" xlink:href="#aB"/><use transform="matrix(0.05,0,0,0.05,20,0)" xlink:href="#aC"/></g><path d="M30 0v-248h187v28H63v79h144v27H63v87h162V0H30" id="aD"/><path d="M177-190C167-65 218 103 67 71c-23-6-38-20-44-43l32-5c15 47 100 32 89-28v-30C133-14 115 1 83 1 29 1 15-40 15-95c0-56 16-97 71-98 29-1 48 16 59 35 1-10 0-23 2-32h30zM94-22c36 0 50-32 50-73 0-42-14-75-50-75-39 0-46 34-46 75s6 73 46 73" id="aE"/><g id="o"><use transform="matrix(0.05,0,0,0.05,0,0)" xlink:href="#aD"/><use transform="matrix(0.05,0,0,0.05,12,0)" xlink:href="#aj"/><use transform="matrix(0.05,0,0,0.05,22,0)" xlink:href="#aE"/><use transform="matrix(0.05,0,0,0.05,32,0)" xlink:href="#an"/><use transform="matrix(0.05,0,0,0.05,35.95,0)" xlink:href="#aj"/><use transform="matrix(0.05,0,0,0.05,45.95,0)" xlink:href="#ag"/></g><path d="M212-179c-10-28-35-45-73-45-59 0-87 40-87 99 0 60 29 101 89 101 43 0 62-24 78-52l27 14C228-24 195 4 139 4 59 4 22-46 18-125c-6-104 99-153 187-111 19 9 31 26 39 46" id="aF"/><path d="M210-169c-67 3-38 105-44 169h-31v-121c0-29-5-50-35-48C34-165 62-65 56 0H25l-1-190h30c1 10-1 24 2 32 10-44 99-50 107 0 11-21 27-35 58-36 85-2 47 119 55 194h-31v-121c0-29-5-49-35-48" id="aG"/><path d="M85-194c31 0 48 13 60 33l-1-100h32l1 261h-30c-2-10 0-23-3-31C134-8 116 4 85 4 32 4 16-35 15-94c0-66 23-100 70-100zm9 24c-40 0-46 34-46 75 0 40 6 74 45 74 42 0 51-32 51-76 0-42-9-74-50-73" id="aH"/><g id="p"><use transform="matrix(0.05,0,0,0.05,0,0)" xlink:href="#aF"/><use transform="matrix(0.05,0,0,0.05,12.950000000000001,0)" xlink:href="#ao"/><use transform="matrix(0.05,0,0,0.05,22.950000000000003,0)" xlink:href="#aG"/><use transform="matrix(0.05,0,0,0.05,37.900000000000006,0)" xlink:href="#aG"/><use transform="matrix(0.05,0,0,0.05,52.85,0)" xlink:href="#al"/><use transform="matrix(0.05,0,0,0.05,62.85,0)" xlink:href="#aj"/><use transform="matrix(0.05,0,0,0.05,72.85000000000001,0)" xlink:href="#aH"/></g><g id="q"><use transform="matrix(0.05,0,0,0.05,0,0)" xlink:href="#as"/><use transform="matrix(0.05,0,0,0.05,12,0)" xlink:href="#al"/><use transform="matrix(0.05,0,0,0.05,22,0)" xlink:href="#ah"/><use transform="matrix(0.05,0,0,0.05,27.950000000000003,0)" xlink:href="#af"/><use transform="matrix(0.05,0,0,0.05,36.95,0)" xlink:href="#ag"/><use transform="matrix(0.05,0,0,0.05,46.95,0)" xlink:href="#ah"/></g><path d="M206 0h-36l-40-164L89 0H53L-1-190h32L70-26l43-164h34l41 164 42-164h31" id="aI"/><g id="r"><use transform="matrix(0.05,0,0,0.05,0,0)" xlink:href="#as"/><use transform="matrix(0.05,0,0,0.05,12,0)" xlink:href="#ao"/><use transform="matrix(0.05,0,0,0.05,22,0)" xlink:href="#aI"/><use transform="matrix(0.05,0,0,0.05,34.95,0)" xlink:href="#ag"/><use transform="matrix(0.05,0,0,0.05,44.95,0)" xlink:href="#ah"/><use transform="matrix(0.05,0,0,0.05,50.900000000000006,0)" xlink:href="#as"/><use transform="matrix(0.05,0,0,0.05,62.900000000000006,0)" xlink:href="#ao"/><use transform="matrix(0.05,0,0,0.05,72.9,0)" xlink:href="#an"/><use transform="matrix(0.05,0,0,0.05,76.85000000000001,0)" xlink:href="#aj"/><use transform="matrix(0.05,0,0,0.05,86.85000000000001,0)" xlink:href="#ak"/></g><g id="s"><use transform="matrix(0.05,0,0,0.05,0,0)" xlink:href="#aD"/><use transform="matrix(0.05,0,0,0.05,12,0)" xlink:href="#ay"/><use transform="matrix(0.05,0,0,0.05,21,0)" xlink:href="#ag"/><use transform="matrix(0.05,0,0,0.05,31,0)" xlink:href="#am"/><use transform="matrix(0.05,0,0,0.05,40,0)" xlink:href="#av"/><use transform="matrix(0.05,0,0,0.05,50,0)" xlink:href="#ak"/><use transform="matrix(0.05,0,0,0.05,55,0)" xlink:href="#an"/><use transform="matrix(0.05,0,0,0.05,58.95,0)" xlink:href="#ao"/><use transform="matrix(0.05,0,0,0.05,68.95,0)" xlink:href="#aj"/></g><path d="M30-248c118-7 216 8 213 122C240-48 200 0 122 0H30v-248zM63-27c89 8 146-16 146-99s-60-101-146-95v194" id="aJ"/><path d="M179-190L93 31C79 59 56 82 12 73V49c39 6 53-20 64-50L1-190h34L92-34l54-156h33" id="aK"/><g id="t"><use transform="matrix(0.05,0,0,0.05,0,0)" xlink:href="#aJ"/><use transform="matrix(0.05,0,0,0.05,12.950000000000001,0)" xlink:href="#an"/><use transform="matrix(0.05,0,0,0.05,16.900000000000002,0)" xlink:href="#ah"/><use transform="matrix(0.05,0,0,0.05,22.85,0)" xlink:href="#ag"/><use transform="matrix(0.05,0,0,0.05,32.85,0)" xlink:href="#am"/><use transform="matrix(0.05,0,0,0.05,41.85,0)" xlink:href="#ak"/><use transform="matrix(0.05,0,0,0.05,46.85,0)" xlink:href="#ao"/><use transform="matrix(0.05,0,0,0.05,56.85,0)" xlink:href="#ah"/><use transform="matrix(0.05,0,0,0.05,62.800000000000004,0)" xlink:href="#aK"/></g><g id="u"><use transform="matrix(0.05,0,0,0.05,0,0)" xlink:href="#az"/><use transform="matrix(0.05,0,0,0.05,12,0)" xlink:href="#am"/><use transform="matrix(0.05,0,0,0.05,21,0)" xlink:href="#al"/><use transform="matrix(0.05,0,0,0.05,31,0)" xlink:href="#aj"/><use transform="matrix(0.05,0,0,0.05,41,0)" xlink:href="#aj"/><use transform="matrix(0.05,0,0,0.05,51,0)" xlink:href="#ag"/><use transform="matrix(0.05,0,0,0.05,61,0)" xlink:href="#ah"/></g><g id="v"><use transform="matrix(0.05,0,0,0.05,0,0)" xlink:href="#ai"/><use transform="matrix(0.05,0,0,0.05,5,0)" xlink:href="#aJ"/></g><path d="M205 0l-28-72H64L36 0H1l101-248h38L239 0h-34zm-38-99l-47-123c-12 45-31 82-46 123h93" id="aL"/><path d="M0 4l72-265h28L28 4H0" id="aM"/><path d="M106-169C34-169 62-67 57 0H25v-261h32l-1 103c12-21 28-36 61-36 89 0 53 116 60 194h-32v-121c2-32-8-49-39-48" id="aN"/><g id="w"><use transform="matrix(0.05,0,0,0.05,0,0)" xlink:href="#aL"/><use transform="matrix(0.05,0,0,0.05,12,0)" xlink:href="#af"/><use transform="matrix(0.05,0,0,0.05,21,0)" xlink:href="#af"/><use transform="matrix(0.05,0,0,0.05,30,0)" xlink:href="#an"/><use transform="matrix(0.05,0,0,0.05,33.95,0)" xlink:href="#aE"/><use transform="matrix(0.05,0,0,0.05,43.95,0)" xlink:href="#aj"/><use transform="matrix(0.05,0,0,0.05,53.95,0)" xlink:href="#ag"/><use transform="matrix(0.05,0,0,0.05,63.95,0)" xlink:href="#ah"/><use transform="matrix(0.05,0,0,0.05,69.9,0)" xlink:href="#aM"/><use transform="matrix(0.05,0,0,0.05,74.9,0)" xlink:href="#as"/><use transform="matrix(0.05,0,0,0.05,86.9,0)" xlink:href="#al"/><use transform="matrix(0.05,0,0,0.05,96.9,0)" xlink:href="#ak"/><use transform="matrix(0.05,0,0,0.05,101.9,0)" xlink:href="#aN"/></g><g id="x"><use transform="matrix(0.05,0,0,0.05,0,0)" xlink:href="#aC"/><use transform="matrix(0.05,0,0,0.05,14.950000000000001,0)" xlink:href="#al"/><use transform="matrix(0.05,0,0,0.05,24.950000000000003,0)" xlink:href="#au"/><use transform="matrix(0.05,0,0,0.05,34.95,0)" xlink:href="#au"/><use transform="matrix(0.05,0,0,0.05,44.95,0)" xlink:href="#ag"/><use transform="matrix(0.05,0,0,0.05,54.95,0)" xlink:href="#ah"/></g><g id="y"><use transform="matrix(0.05,0,0,0.05,0,0)" xlink:href="#aF"/><use transform="matrix(0.05,0,0,0.05,12.950000000000001,0)" xlink:href="#ao"/><use transform="matrix(0.05,0,0,0.05,22.950000000000003,0)" xlink:href="#aj"/><use transform="matrix(0.05,0,0,0.05,32.95,0)" xlink:href="#ak"/><use transform="matrix(0.05,0,0,0.05,37.95,0)" xlink:href="#ag"/><use transform="matrix(0.05,0,0,0.05,47.95,0)" xlink:href="#aj"/><use transform="matrix(0.05,0,0,0.05,57.95,0)" xlink:href="#ak"/></g><g id="z"><use transform="matrix(0.05,0,0,0.05,0,0)" xlink:href="#aD"/><use transform="matrix(0.05,0,0,0.05,12,0)" xlink:href="#ay"/><use transform="matrix(0.05,0,0,0.05,21,0)" xlink:href="#ak"/><use transform="matrix(0.05,0,0,0.05,26,0)" xlink:href="#ah"/><use transform="matrix(0.05,0,0,0.05,31.950000000000003,0)" xlink:href="#al"/><use transform="matrix(0.05,0,0,0.05,41.95,0)" xlink:href="#am"/><use transform="matrix(0.05,0,0,0.05,50.95,0)" xlink:href="#ak"/><use transform="matrix(0.05,0,0,0.05,55.95,0)" xlink:href="#ao"/><use transform="matrix(0.05,0,0,0.05,65.95,0)" xlink:href="#ah"/></g><g id="A"><use transform="matrix(0.05,0,0,0.05,0,0)" xlink:href="#at"/><use transform="matrix(0.05,0,0,0.05,11.65,0)" xlink:href="#an"/><use transform="matrix(0.05,0,0,0.05,15.600000000000001,0)" xlink:href="#af"/><use transform="matrix(0.05,0,0,0.05,24.6,0)" xlink:href="#an"/><use transform="matrix(0.05,0,0,0.05,28.55,0)" xlink:href="#ao"/><use transform="matrix(0.05,0,0,0.05,38.55,0)" xlink:href="#aj"/></g><g id="B"><use transform="matrix(0.05,0,0,0.05,0,0)" xlink:href="#aL"/><use transform="matrix(0.05,0,0,0.05,12,0)" xlink:href="#ai"/></g><path d="M233-177c-1 41-23 64-60 70L243 0h-38l-65-103H63V0H30v-248c88 3 205-21 203 71zM63-129c60-2 137 13 137-47 0-61-80-42-137-45v92" id="aO"/><g id="C"><use transform="matrix(0.05,0,0,0.05,0,0)" xlink:href="#ap"/><use transform="matrix(0.05,0,0,0.05,14,0)" xlink:href="#aF"/><use transform="matrix(0.05,0,0,0.05,26.950000000000003,0)" xlink:href="#aO"/></g><path d="M194 0L95-120 63-95V0H30v-248h33v124l119-124h40L117-140 236 0h-42" id="aP"/><g id="D"><use transform="matrix(0.05,0,0,0.05,0,0)" xlink:href="#aO"/><use transform="matrix(0.05,0,0,0.05,12.950000000000001,0)" xlink:href="#aL"/><use transform="matrix(0.05,0,0,0.05,24.950000000000003,0)" xlink:href="#aP"/><use transform="matrix(0.05,0,0,0.05,36.95,0)" xlink:href="#aD"/></g><g id="E"><use transform="matrix(0.05,0,0,0.05,0,0)" xlink:href="#aP"/><use transform="matrix(0.05,0,0,0.05,12,0)" xlink:href="#ag"/><use transform="matrix(0.05,0,0,0.05,22,0)" xlink:href="#aK"/><use transform="matrix(0.05,0,0,0.05,31,0)" xlink:href="#aI"/><use transform="matrix(0.05,0,0,0.05,43.95,0)" xlink:href="#ao"/><use transform="matrix(0.05,0,0,0.05,53.95,0)" xlink:href="#ah"/><use transform="matrix(0.05,0,0,0.05,59.900000000000006,0)" xlink:href="#aH"/></g><g id="F"><use transform="matrix(0.05,0,0,0.05,0,0)" xlink:href="#aC"/><use transform="matrix(0.05,0,0,0.05,14.950000000000001,0)" xlink:href="#ag"/><use transform="matrix(0.05,0,0,0.05,24.950000000000003,0)" xlink:href="#ak"/><use transform="matrix(0.05,0,0,0.05,29.950000000000003,0)" xlink:href="#al"/><use transform="matrix(0.05,0,0,0.05,39.95,0)" xlink:href="#aH"/><use transform="matrix(0.05,0,0,0.05,49.95,0)" xlink:href="#al"/><use transform="matrix(0.05,0,0,0.05,59.95,0)" xlink:href="#ak"/><use transform="matrix(0.05,0,0,0.05,64.95,0)" xlink:href="#al"/></g><g id="G"><use transform="matrix(0.05,0,0,0.05,0,0)" xlink:href="#ax"/><use transform="matrix(0.05,0,0,0.05,10.3,0)" xlink:href="#ah"/><use transform="matrix(0.05,0,0,0.05,16.25,0)" xlink:href="#al"/><use transform="matrix(0.05,0,0,0.05,26.25,0)" xlink:href="#an"/><use transform="matrix(0.05,0,0,0.05,30.200000000000003,0)" xlink:href="#aj"/><use transform="matrix(0.05,0,0,0.05,40.2,0)" xlink:href="#ag"/><use transform="matrix(0.05,0,0,0.05,50.2,0)" xlink:href="#ah"/></g><g id="H"><use transform="matrix(0.05,0,0,0.05,0,0)" xlink:href="#az"/><use transform="matrix(0.05,0,0,0.05,12,0)" xlink:href="#ak"/><use transform="matrix(0.05,0,0,0.05,17,0)" xlink:href="#ao"/><use transform="matrix(0.05,0,0,0.05,27,0)" xlink:href="#ah"/><use transform="matrix(0.05,0,0,0.05,32.95,0)" xlink:href="#ag"/></g></defs></g></svg>